<svg xmlns="http://www.w3.org/2000/svg" xmlns:xlink="http://www.w3.org/1999/xlink" width="235" height="195" viewBox="0 0 235 195">
    <defs>
        <path id="qk78bcmgna" d="M0 0.719L84.242 0.719 84.242 31.311 0 31.311z"/>
        <path id="2gij5vd9hc" d="M0.301 0.111L13.746 0.111 13.746 5.46 0.301 5.46z"/>
    </defs>
    <g fill="none" fill-rule="evenodd">
        <text font-family="PingFangTC-Regular, PingFang TC" font-size="11.7" letter-spacing=".924" transform="translate(1)">
            <tspan x="155" y="43" fill="#373737">發</tspan> <tspan x="167.624" y="43" fill="#1BBF69">0.5％</tspan> <tspan x="200.147" y="43" fill="#373737">綠電</tspan>
        </text>
        <g stroke="#13AE67" stroke-linecap="round" stroke-linejoin="round" stroke-width=".78">
            <path d="M31.315 30.982h-15.63C7.275 30.982.39 24.099.39 15.686S7.274.39 15.686.39h57.012c8.413 0 15.295 6.883 15.295 15.296s-6.882 15.296-15.295 15.296H40.656M31.315 30.982l-4.081 5.182c-.065.083.022.198.12.159l13.302-5.341" transform="translate(1) translate(145 26)"/>
        </g>
        <g>
            <g transform="translate(1) translate(16) translate(0 .06)">
                <mask id="aa54o15j6b" fill="#fff">
                    <use xlink:href="#qk78bcmgna"/>
                </mask>
                <path fill="#13AE67" d="M30.925 31.31h-15.63C6.885 31.31 0 24.429 0 16.016S6.884.72 15.296.72h53.65c8.412 0 15.296 6.883 15.296 15.296s-6.884 15.296-15.296 15.296h-28.68" mask="url(#aa54o15j6b)"/>
            </g>
            <g transform="translate(1) translate(16) translate(26.52 31.26)">
                <mask id="4r4wne7xxd" fill="#fff">
                    <use xlink:href="#2gij5vd9hc"/>
                </mask>
                <path fill="#13AE67" d="M4.405.11L.324 5.294c-.065.083.022.198.12.16L13.745.11" mask="url(#4r4wne7xxd)"/>
            </g>
        </g>
        <g stroke="#1BBF69" stroke-linecap="round" stroke-linejoin="round" stroke-width="1.3">
            <path d="M68 75L68 53.078 56.287 53.078 55.769 32.997 53.976 32.997 52.811 53.078 46.85 53.078 46.85 37.267 43.255 37.267 42.418 22 40.107 22 39.115 37.383 34.701 37.383 34.701 46.022 28.185 50.142 28.185 57.063 17 63.452 17 75M65.463.601c-1.378 0-2.707.511-3.728 1.435C60.245.22 57.77-.465 55.552.323c-2.218.789-3.698 2.88-3.697 5.225 0 0 0 0 0 0-2.3.25-4.204 1.891-4.785 4.121h-.228c-1.928 0-3.49 1.557-3.49 3.477.031.36.031.72 0 1.08-1.313.025-2.36 1.096-2.352 2.402.008 1.307 1.07 2.364 2.382 2.372 1.312.008 2.387-1.035 2.412-2.341.349-.03.7-.03 1.048 0 .901 0 1.767-.348 2.415-.972 2.47 1.69 5.839 1.128 7.62-1.27 1.236 2.213 3.82 3.311 6.28 2.67 2.459-.642 4.17-2.861 4.157-5.394v-.326c2.541-.91 4.061-3.504 3.606-6.155-.456-2.651-2.756-4.595-5.457-4.61zM55 28.558c.001.695.461 1.29 1.095 1.417.634.128 1.262-.249 1.496-.896 1.034.471 2.234.125 2.912-.84.678-.964.66-2.302-.04-3.247-.702-.945-1.91-1.256-2.932-.755-1.023.5-1.6 1.686-1.4 2.876-.657.113-1.14.728-1.13 1.445z" transform="translate(1) translate(0 77)"/>
            <path d="M38 45L38 43 39 43M38 51L38 49 39 49M38 56L38 54 39 54M38 62L38 60 39 60M23 67L23 65 24 65M23 72L23 70 24 70M60 60L60 58 61 58M60 67L60 65 61 65M52 72L52 70 53 70M31 67L31 65 32 65M159.063 48.407s-4.813-20 9.009-32.44c9.59-8.625 12.25-2.472 20.045-7.81 2.58-1.791 7.143 11.966.241 28.508-6.902 16.543-27.938 15.03-27.938 15.03L154 61" transform="translate(1) translate(0 77)"/>
            <path d="M179.327 21L171.235 27.711 176.455 30.223 171 38 182 29.787 175.796 26.793zM0 83h84l-2.27 1.343C56.47 99.023 24.725 98.5 0 83h0zM128.009 66H212l-2.297 1.343C184.45 82.02 152.72 81.502 128 66.009l.009-.009zM83 83l45-18M107.5 80v32M84.241 113L131 113 131 117 84 117z" transform="translate(1) translate(0 77)"/>
        </g>
        <text fill="#FFF" font-family="PingFangTC-Regular, PingFang TC" font-size="11.7" letter-spacing="1.782" transform="translate(1)">
            <tspan x="32" y="18">用50%電</tspan>
        </text>
    </g>
</svg>
