<svg xmlns="http://www.w3.org/2000/svg" xmlns:xlink="http://www.w3.org/1999/xlink" width="44" height="45" viewBox="0 0 44 45">
    <defs>
        <path id="tut47rp0ta" d="M0.001 0.614L43.54 0.614 43.54 44.16 0.001 44.16z"/>
    </defs>
    <g fill="none" fill-rule="evenodd">
        <path fill="#7ACA44" d="M28.175 23.902H23.98v10.064h-4.406v-10h-4.322v-4.425h4.176c.157-2.928.082-5.87 2.736-7.759 1.799-1.288 3.855-.936 5.996-.913v4.387c-.827 0-1.665.023-2.49 0-1.19-.035-1.765.499-1.73 1.695.023.807.008 1.607.008 2.542h4.227v4.409z"/>
        <mask id="26fgzm5okb" fill="#fff">
            <use xlink:href="#tut47rp0ta"/>
        </mask>
        <path fill="#7ACA44" d="M39.563 31.439c-.004 4.466-3.339 8.181-7.791 8.66-.81.086-1.634.074-2.45.078-2.519.01-5.036.004-7.553.004-2.995 0-5.993.002-8.988-.002-4.009-.004-7.438-2.604-8.473-6.467-.2-.752-.313-1.551-.317-2.327-.024-5.992-.026-11.986-.01-17.979.012-4.414 3.086-7.996 7.447-8.703.485-.079.983-.106 1.476-.106 5.9-.007 11.8-.007 17.699-.003 4.504.003 8.021 2.926 8.84 7.347.084.467.116.95.118 1.427.006 6.025.006 12.048.002 18.071m3.762-20.296C42.176 4.976 36.919.62 30.647.617 24.716.613 18.783.61 12.852.625c-.768.002-1.547.06-2.302.2C4.364 1.97 0 7.243.002 13.533c0 5.87-.006 11.739.007 17.608 0 .724.06 1.452.164 2.166.9 6.144 6.276 10.817 12.49 10.84 6.07.02 12.141.018 18.212-.011.9-.004 1.822-.119 2.702-.324 5.944-1.394 9.945-6.465 9.959-12.573.006-2.95 0-5.902 0-8.85 0-2.983.013-5.964-.01-8.946-.004-.766-.061-1.546-.201-2.3z" mask="url(#26fgzm5okb)"/>
    </g>
</svg>
