<svg xmlns="http://www.w3.org/2000/svg" xmlns:xlink="http://www.w3.org/1999/xlink" width="265" height="185" viewBox="0 0 265 185">
    <defs>
        <path id="x9di8q7xba" d="M0 0.302L121.807 0.302 121.807 94.555 0 94.555z"/>
        <path id="n1nm8l63uc" d="M0.501 0.302L122.961 0.302 122.961 94.555 0.501 94.555z"/>
        <path id="skfr53cf7e" d="M0.27 0.172L62.992 0.172 62.992 124.48 0.27 124.48z"/>
    </defs>
    <g fill="none" fill-rule="evenodd">
        <g transform="translate(0 90)">
            <mask id="s39t7g9pvb" fill="#fff">
                <use xlink:href="#x9di8q7xba"/>
            </mask>
            <path fill="#1BBF69" d="M72.447 11.31c-11.877-7.645-16.997-2.98-16.284 0 .76 3.175 8.598 9.108 14.582 13.245.736.509.353 1.662-.542 1.64-20.595-.515-32.759-3.593-35.212-6.638C32.049 15.9 17.03 2.397 11.145.607 5.26-1.182-4.002 4.86 1.884 19.557c0 0 30.165 38.183 51.5 40.385 21.336 2.203 35.314 7.384 36.051 12.134.736 4.749 6.156 22.48 6.156 22.48h26.216V54.07c-1.406-33.118-37.483-35.115-49.36-42.76" mask="url(#s39t7g9pvb)"/>
        </g>
        <g transform="translate(142 90)">
            <mask id="bfukgbidud" fill="#fff">
                <use xlink:href="#n1nm8l63uc"/>
            </mask>
            <path fill="#1BBF69" d="M50.125 11.31c11.94-7.645 17.088-2.98 16.372 0-.765 3.175-8.644 9.108-14.66 13.245-.741.509-.356 1.662.545 1.64 20.705-.515 32.933-3.593 35.4-6.638 2.96-3.657 18.057-17.16 23.973-18.95 5.918-1.789 15.23 4.253 9.312 18.95 0 0-30.326 38.183-51.777 40.385-21.45 2.203-35.503 7.384-36.244 12.134-.74 4.749-6.19 22.48-6.19 22.48H.502V54.07c1.413-33.118 37.684-35.115 49.624-42.76" mask="url(#bfukgbidud)"/>
        </g>
        <g transform="translate(123)">
            <mask id="wmmanwdtjf" fill="#fff">
                <use xlink:href="#skfr53cf7e"/>
            </mask>
            <path fill="#1BBF69" d="M44.985 53.613L22.272 70.12c-.07.05-.15.075-.23.075-.1 0-.2-.038-.276-.113-.136-.136-.154-.35-.041-.505L32.719 54.32l-10.363-4.849c-.122-.057-.205-.173-.222-.307-.016-.133.039-.266.143-.35l16.719-13.486c.149-.12.361-.115.504.011.143.127.173.339.072.5l-7.067 11.267 12.416 5.836c.126.06.21.18.223.318.013.136-.047.27-.159.352M46.553.78C33.595 15.6 25.005 4.61 10.132 27.009-11.304 59.29 8.884 97.063 8.884 97.063l1.852 3.91-7.216 20.572c-.402 1.147.201 2.403 1.346 2.809 1.14.402 2.391-.189 2.806-1.324l7.324-20.087s41.65-7.94 46.953-44.874C67.25 21.136 50.843-4.126 46.553.78" mask="url(#wmmanwdtjf)"/>
        </g>
    </g>
</svg>
