<svg xmlns="http://www.w3.org/2000/svg" xmlns:xlink="http://www.w3.org/1999/xlink" width="45" height="45" viewBox="0 0 45 45">
    <defs>
        <path id="trt91jbfwa" d="M0.98 0.614L44.519 0.614 44.519 44.16 0.98 44.16z"/>
    </defs>
    <g fill="none" fill-rule="evenodd">
        <path fill="#7ACA44" d="M22.388 21.475c0 1.703.006 3.25-.004 4.8-.004.753-.428 1.189-1.092 1.168-.603-.02-1.035-.5-1.039-1.202-.006-1.394.004-2.79.006-4.184l.004-3.349c.002-.737.23-1.163.706-1.324.523-.177.964.025 1.408.628 1.203 1.64 2.411 3.277 3.617 4.913.071.094.154.175.324.367v-1.869c0-.994-.002-1.987.002-2.983.004-.65.448-1.116 1.049-1.114.61.002 1.06.455 1.06 1.116.01 2.617.011 5.234.005 7.849-.002.585-.294 1.011-.76 1.125-.515.128-.927-.079-1.23-.488-1.264-1.703-2.518-3.414-3.776-5.12-.059-.08-.126-.15-.28-.333M32.014 19.436v1.901c.974 0 1.928-.002 2.882.002.434.002.768.165.97.576.186.384.202.789-.098 1.064-.257.232-.634.435-.971.458-.914.062-1.838.022-2.788.022v1.868c.939 0 1.874-.008 2.807.002.7.007 1.167.44 1.173 1.063.008.578-.417 1.043-.999 1.047-1.359.011-2.72.01-4.081 0-.605-.004-1.037-.402-1.041-1.004-.012-2.706-.008-5.41.008-8.112.002-.519.338-.941.852-.959 1.444-.048 2.89-.061 4.334-.019.59.018.93.503.92 1.066-.01.545-.396.977-.992 1.014-.643.04-1.29.011-1.935.011h-1.04zM11.625 25.332c1.02 0 1.976-.01 2.93.004.537.006.989.39 1.09.88.09.439-.18.94-.641 1.138-.154.065-.336.084-.505.084-1.275.008-2.548.008-3.82.002-.723-.002-1.168-.386-1.174-1.108-.013-2.634-.006-5.268.016-7.902.005-.684.46-1.1 1.079-1.085.61.015.998.438 1.004 1.15.015 2.058.015 4.116.02 6.175v.662M18.732 22.406c0 1.271.004 2.542 0 3.813-.006.77-.398 1.22-1.043 1.22-.64-.002-1.065-.465-1.065-1.214 0-2.578.011-5.153.029-7.732.003-.735.409-1.158 1.056-1.146.614.012.996.44 1 1.14.006 1.308.002 2.614.002 3.92h.02z"/>
        <mask id="k3kn9ztgvb" fill="#fff">
            <use xlink:href="#trt91jbfwa"/>
        </mask>
        <path fill="#7ACA44" d="M40.543 31.439c-.004 4.466-3.34 8.181-7.791 8.66-.81.086-1.634.074-2.45.078-2.52.01-5.037.004-7.554.004-2.995 0-5.992.002-8.987-.002-4.01-.004-7.438-2.604-8.473-6.467-.202-.752-.313-1.551-.317-2.327-.027-5.992-.027-11.986-.011-17.979.011-4.414 3.087-7.996 7.447-8.703.486-.079.983-.106 1.477-.106 5.9-.007 11.8-.007 17.698-.003 4.505.003 8.022 2.926 8.84 7.347.084.467.117.95.117 1.427.008 6.025.008 12.048.004 18.071m3.963-17.996c-.006-.766-.062-1.546-.204-2.3C43.156 4.976 37.9.62 31.626.617 25.696.613 19.763.61 13.832.625c-.768.002-1.548.06-2.302.2C5.344 1.97.98 7.243.98 13.533c0 5.87-.005 11.739.006 17.608.002.724.062 1.452.165 2.166.9 6.144 6.277 10.817 12.49 10.84 6.07.02 12.142.018 18.213-.011.9-.004 1.822-.119 2.7-.324 5.946-1.394 9.947-6.465 9.96-12.573.006-2.95 0-5.902 0-8.85 0-2.983.014-5.964-.01-8.946L28.438 26.29" mask="url(#k3kn9ztgvb)"/>
    </g>
</svg>
